<mxfile host="app.diagrams.net" modified="2024-01-13T03:33:45.998Z" agent="Mozilla/5.0 (Windows NT 10.0; Win64; x64) AppleWebKit/537.36 (KHTML, like Gecko) Chrome/120.0.0.0 Safari/537.36" version="22.1.18" etag="A6WLYbGhHq1nT8k3JvtQ" type="github">
  <diagram name="Page-1" id="KJbX3Z-lfEPuQ5OIt68c">
    <mxGraphModel>
      <root>
        <mxCell id="0" />
        <mxCell id="1" parent="0" />
      </root>
    </mxGraphModel>
  </diagram>
</mxfile>
